# xmcd
#
# Track frame offsets: 
#        193
#        20035
#        33361
#        48850
#        69504
#        89216
#        103883
#        119828
#        139174
#        152496
#        171363
#
# Disc length: 2491 seconds
#
# Revision: 0
# Processed by: cddbd v1.5.2PL0 Copyright (c) Steve Scherf et al.
# Submitted via: ExactAudioCopyFreeDBPlugin 1.0
#
DISCID=9f09b90b
DTITLE=Melba Moore - Peach Melba
DYEAR=1975
DGENRE=Soul
TTITLE0=Must Be Dues
TTITLE1=Get Into My Mind
TTITLE2=If You Can Believe
TTITLE3=Sunshine Superman
TTITLE4=My Soul Is Satisfied
TTITLE5=I Am His Lady
TTITLE6=Green Birds Fly
TTITLE7=Natural Part Of Everything
TTITLE8=Love Can Be Good To You
TTITLE9=A Million Years Before This Time
TTITLE10=If I Lose
EXTD=
EXTT0=
EXTT1=
EXTT2=
EXTT3=
EXTT4=
EXTT5=
EXTT6=
EXTT7=
EXTT8=
EXTT9=
EXTT10=
PLAYORDER=
